Coordinates
version=1
nRows=7
nColumns=40
inDegrees=yes

Units are S.I. units (second, meters, Newtons, ...)
If the header above contains a line with 'inDegrees', this indicates whether rotational values are in degrees (yes) or radians (no).

endheader
time	pelvis_tilt	pelvis_list	pelvis_rotation	pelvis_tx	pelvis_ty	pelvis_tz	hip_flexion_r	hip_adduction_r	hip_rotation_r	knee_angle_r	knee_angle_r_beta	ankle_angle_r	subtalar_angle_r	mtp_angle_r	hip_flexion_l	hip_adduction_l	hip_rotation_l	knee_angle_l	knee_angle_l_beta	ankle_angle_l	subtalar_angle_l	mtp_angle_l	lumbar_extension	lumbar_bending	lumbar_rotation	arm_flex_r	arm_add_r	arm_rot_r	elbow_flex_r	pro_sup_r	wrist_flex_r	wrist_dev_r	arm_flex_l	arm_add_l	arm_rot_l	elbow_flex_l	pro_sup_l	wrist_flex_l	wrist_dev_l
      4.97500000	    -22.49976077	      3.70939724	      2.17787296	     -0.40068056	      0.78397010	     -1.02008134	     28.05562837	     -7.45192045	     -3.52914275	     93.14915910	      1.62575952	    -10.61461703	      0.00000000	      0.00000000	     63.72681684	      2.34651431	    -14.28183919	     64.30669379	      1.12236354	     13.30620538	      0.00000000	      0.00000000	     -7.39836741	     -7.82035041	     -1.13796551	     89.91342311	    -12.25993628	     10.39343457	     35.14691106	     78.82233569	      0.00000000	      0.00000000	     89.91976575	    -18.54141846	     13.78755083	     44.34101051	     83.46562747	      0.00000000	      0.00000000
      4.98000000	    -22.57748175	      3.72754120	      2.16657909	     -0.40085142	      0.78309642	     -1.02002535	     28.04597913	     -7.43469177	     -3.46910930	     93.07902378	      1.62453543	    -10.62319692	      0.00000000	      0.00000000	     63.92705948	      2.29486388	    -14.37581590	     64.51664948	      1.12602796	     13.43258471	      0.00000000	      0.00000000	     -7.36171302	     -7.84768578	     -1.11990051	     89.91398232	    -12.27320217	     10.37554455	     35.16327563	     78.97488018	      0.00000000	      0.00000000	     89.92039082	    -18.54354467	     13.76809367	     44.41951669	     83.53433564	      0.00000000	      0.00000000
      4.98500000	    -22.75969266	      3.67950035	      2.35861639	     -0.40135950	      0.78237080	     -1.02018511	     28.11931898	     -7.44848803	     -3.59903347	     92.96031012	      1.62246349	    -10.71779146	      0.00000000	      0.00000000	     64.22028182	      2.43644438	    -14.20923782	     64.56133994	      1.12680795	     13.34159407	      0.00000000	      0.00000000	     -7.28658736	     -7.79708444	     -1.30528881	     89.91482913	    -12.22231869	     10.55847773	     35.38787440	     76.12545809	      0.00000000	      0.00000000	     89.92089610	    -18.51556081	     13.91316879	     44.59583600	     80.58512979	      0.00000000	      0.00000000
      4.99000000	    -22.76228739	      3.77826595	      2.19646504	     -0.40119760	      0.78165953	     -1.02000783	     28.00698365	     -7.44601640	     -3.35738321	     92.86116841	      1.62073314	    -10.61748706	      0.00000000	      0.00000000	     64.26978976	      2.28500795	    -14.46154290	     64.74175261	      1.12995675	     13.46672318	      0.00000000	      0.00000000	     -7.30945336	     -7.94407614	     -1.14889344	     89.91503884	    -12.30550789	     10.27765968	     35.43422265	     79.02255861	      0.00000000	      0.00000000	     89.92120595	    -18.47126421	     13.58391903	     44.60494886	     83.37930303	      0.00000000	      0.00000000
      4.99500000	    -22.86093485	      3.82528509	      2.29927982	     -0.40152530	      0.78093144	     -1.02013802	     28.01818987	     -7.54680758	     -3.38467791	     92.79564964	      1.61958962	    -10.65106044	      0.00000000	      0.00000000	     64.46696521	      2.39766878	    -14.45491354	     64.84186418	      1.13170402	     13.48077701	      0.00000000	      0.00000000	     -7.29398653	     -7.99826570	     -1.28941694	     89.91541333	    -12.18957748	      9.98473551	     35.52799188	     78.86520384	      0.00000000	      0.00000000	     89.92188879	    -18.44245503	     13.45156433	     44.68469848	     83.57634368	      0.00000000	      0.00000000
      5.00000000	    -22.92148636	      3.92045725	      2.33550187	     -0.40168480	      0.78016743	     -1.02021936	     27.96462225	     -7.64831221	     -3.33255647	     92.71183781	      1.61812683	    -10.71248534	      0.00000000	      0.00000000	     64.59621080	      2.45408976	    -14.57476287	     64.95482991	      1.13367565	     13.51126606	      0.00000000	      0.00000000	     -7.29694572	     -8.11779066	     -1.31696419	     89.91585824	    -12.22555332	      9.83656032	     35.57291704	     79.54431606	      0.00000000	      0.00000000	     89.92233627	    -18.39479369	     13.40074140	     44.76819363	     83.32177642	      0.00000000	      0.00000000
      5.00500000	    -23.03854053	      3.96425389	      2.32580646	     -0.40193382	      0.77932650	     -1.02025378	     28.00204603	     -7.69684249	     -3.27427588	     92.63634652	      1.61680925	    -10.79896754	      0.00000000	      0.00000000	     64.78879251	      2.43304060	    -14.68653811	     65.06882795	      1.13566529	     13.65621695	      0.00000000	      0.00000000	     -7.24115323	     -8.17506834	     -1.33240725	     89.91625346	    -12.19791595	     10.54151901	     35.76571245	     73.68445941	      0.00000000	      0.00000000	     89.92285706	    -18.46513402	     14.01685406	     45.05512341	     77.63787196	      0.00000000	      0.00000000
